<svg width="22" height="24" viewBox="0 0 22 24" fill="none" xmlns="http://www.w3.org/2000/svg">
  <path id="aee0e443" d="M11 0L0.605011 6V18L11 24L21.395 18V6L11 0ZM11 1.41L20.172 6.705V17.295L11 22.59L1.82801 17.295V6.705L11 1.41ZM4.90201 8.334C3.59601 8.334 2.91901 9.29 2.32801 10.744V17.006L11 22.014L19.672 17.006V11.035C19.225 10.771 18.778 10.623 18.336 10.623C14.061 10.623 14.366 15.508 11.619 16.423C8.87101 17.34 8.10801 8.334 4.90201 8.334ZM17.266 8.791C14.366 8.791 15.129 13.523 11.924 13.523C10.294 13.523 9.40401 12.206 8.44701 11.542C8.59501 11.868 8.74701 12.197 8.88901 12.522C9.35601 13.59 9.81101 14.612 10.268 15.256C10.496 15.578 10.723 15.797 10.912 15.9C10.9927 15.952 11.0848 15.9837 11.1804 15.9924C11.276 16.0011 11.3723 15.9866 11.461 15.95C12.019 15.763 12.429 15.379 12.821 14.838C13.211 14.297 13.561 13.61 13.975 12.922C14.388 12.234 14.869 11.537 15.565 11.004C16.26 10.47 17.172 10.123 18.335 10.123C18.8 10.123 19.243 10.259 19.672 10.475V10.354C19.039 9.505 18.324 8.791 17.266 8.791ZM10.586 8.943C9.71801 8.943 9.09501 9.763 8.51001 11.003C8.60401 11.058 8.70201 11.109 8.78701 11.17C9.84701 11.931 10.585 13.023 11.924 13.023C12.602 13.023 12.991 12.805 13.342 12.438C12.62 10.892 11.91 8.946 10.586 8.943Z" fill="#FF6384"></path>
</svg>